<svg viewBox="0 0 100 100" fill="none" xmlns="http://www.w3.org/2000/svg">
  <defs>
    <linearGradient id="srSun" x1="0%" y1="0%" x2="0%" y2="100%">
      <stop offset="0%" stop-color="#fae8ff" stop-opacity="0.85" />
      <stop offset="100%" stop-color="#c084fc" stop-opacity="0.1" />
    </linearGradient>
    <linearGradient id="srRoof" x1="0%" y1="0%" x2="0%" y2="100%">
      <stop offset="0%" stop-color="#d946ef" />
      <stop offset="100%" stop-color="#701a75" />
    </linearGradient>
    <linearGradient id="srWalls" x1="0%" y1="0%" x2="100%" y2="0%">
      <stop offset="0%" stop-color="#f3e8ff" />
      <stop offset="50%" stop-color="#ffffff" />
      <stop offset="100%" stop-color="#e9d5ff" />
    </linearGradient>
  </defs>
  <circle cx="50" cy="48" r="35" fill="url(#srSun)" />
  <!-- Lawang Sewu Colonial Fasad -->
  <rect x="5" y="78" width="90" height="10" rx="1.5" fill="url(#srWalls)" />
  <!-- Central Building -->
  <rect x="18" y="58" width="64" height="20" fill="url(#srWalls)" />
  <!-- Arches -->
  <path d="M 22 78 V 65 A 3 3 0 0 1 28 65 V 78 M 32 78 V 65 A 3 3 0 0 1 38 65 V 78 M 42 78 V 65 A 3 3 0 0 1 48 65 V 78 M 52 78 V 65 A 3 3 0 0 1 58 65 V 78 M 62 78 V 65 A 3 3 0 0 1 68 65 V 78 M 72 78 V 65 A 3 3 0 0 1 78 65 V 78" stroke="#701a75" stroke-width="1.2" fill="none" />
  <path d="M 18 58 L 82 58 L 76 50 L 24 50 Z" fill="url(#srRoof)" />
  <!-- Left Tower -->
  <rect x="10" y="44" width="10" height="34" fill="url(#srWalls)" />
  <path d="M 8 44 L 22 44 L 15 32 Z" fill="url(#srRoof)" />
  <rect x="13" y="52" width="4" height="12" rx="1" fill="#701a75" opacity="0.6" />
  <!-- Right Tower -->
  <rect x="80" y="44" width="10" height="34" fill="url(#srWalls)" />
  <path d="M 78 44 L 92 44 L 85 32 Z" fill="url(#srRoof)" />
  <rect x="83" y="52" width="4" height="12" rx="1" fill="#701a75" opacity="0.6" />
</svg>
